<?xml version="1.0" encoding="utf-8"?>
<svg viewBox="0 0 500 500" xmlns="http://www.w3.org/2000/svg" xmlns:xlink="http://www.w3.org/1999/xlink">
  <defs>
    <linearGradient id="linear-gradient" x1="209.5" y1="316.63" x2="203.59" y2="64.92" gradientTransform="matrix(1.761439, 0, 0, -1.660143, -119.445778, 580.781945)" gradientUnits="userSpaceOnUse">
      <stop offset="0.01"/>
      <stop offset="0.08" stop-opacity="0.69"/>
      <stop offset="0.21" stop-opacity="0.32"/>
      <stop offset="1" stop-opacity="0"/>
    </linearGradient>
    <linearGradient id="linear-gradient-2" x1="-2957.44" y1="672.97" x2="-2838.25" y2="667.7" gradientTransform="matrix(-1.768453, 0, 0, 1.660143, -4845.113396, -782.178749)" xlink:href="#linear-gradient"/>
    <linearGradient id="linear-gradient-3" x1="173.97" y1="180.93" x2="108.65" y2="201.49" gradientTransform="matrix(1.768453, 0, 0, -1.660143, -120.142838, 580.781945)" xlink:href="#linear-gradient"/>
    <linearGradient id="linear-gradient-4" x1="-743.12" y1="171.74" x2="-731.16" y2="171.74" gradientTransform="matrix(-1, 0, 0, -1, -454.565567, 393.002029)" gradientUnits="userSpaceOnUse">
      <stop offset="0" stop-color="#e5c5d5"/>
      <stop offset="0.42" stop-color="#ead4d1"/>
      <stop offset="1" stop-color="#f0e9cb"/>
    </linearGradient>
    <linearGradient id="linear-gradient-7" x1="-1953.85" y1="118.92" x2="-1888.34" y2="184.43" gradientTransform="matrix(-1.768453, 0, 0, -1.660143, -3100.393425, 580.781945)" xlink:href="#linear-gradient"/>
    <linearGradient id="linear-gradient-8" x1="211.86" y1="148.34" x2="261.87" y2="148.34" gradientTransform="matrix(1.768453, 0, 0, -1.660143, -120.142838, 580.781945)" xlink:href="#linear-gradient"/>
    <linearGradient id="linear-gradient-9" x1="174.2" y1="167.63" x2="183.57" y2="167.63" gradientTransform="matrix(1.768453, 0, 0, -1.660143, -120.142838, 580.781945)" xlink:href="#linear-gradient-4"/>
    <linearGradient id="linear-gradient-10" x1="-1854.55" y1="164.4" x2="-1834.4" y2="105.2" gradientTransform="matrix(-1.768453, 0, 0, -1.660143, -3090.45446, 580.781945)" xlink:href="#linear-gradient-4"/>
    <linearGradient id="linear-gradient-11" x1="164.45" y1="132.49" x2="185.62" y2="108.49" gradientTransform="matrix(1.768453, 0, 0, -1.660143, -120.142838, 580.781945)" xlink:href="#linear-gradient-4"/>
    <linearGradient id="linear-gradient-12" x1="139.63" y1="132.48" x2="175.14" y2="155.99" gradientTransform="matrix(1.768453, 0, 0, -1.660143, -120.142838, 580.781945)" xlink:href="#linear-gradient"/>
    <linearGradient id="linear-gradient-13" x1="-3234.06" y1="1403.6" x2="-3223.35" y2="1403.6" gradientTransform="matrix(-1.768453, 0, 0, 1.660143, -5554.033318, -2067.925819)" xlink:href="#linear-gradient-4"/>
    <linearGradient id="linear-gradient-14" x1="387.38" y1="130.26" x2="442.92" y2="185.8" gradientTransform="matrix(1.768453, 0, 0, -1.660143, -607.192497, 580.781945)" xlink:href="#linear-gradient"/>
  </defs>
  <title>14</title>
  <ellipse cx="241.084" cy="396.008" rx="185.497" ry="33.983" fill="url(#linear-gradient)" style=""/>
  <path d="M 369.576 331.229 L 385.775 388.338 C 386.103 389.51 385.348 390.71 384.096 391.01 C 383.909 391.036 383.72 391.036 383.53 391.01 C 382.462 391.013 381.533 390.326 381.284 389.35 L 365.068 332.258 C 364.742 331.08 365.493 329.876 366.748 329.569 C 367.973 329.263 369.233 329.946 369.559 331.097 L 369.576 331.229 Z" style="fill: rgb(67, 89, 203);"/>
  <path d="M 339.655 331.212 L 327.699 387.922 C 327.477 389.197 328.394 390.4 329.751 390.611 L 330.141 390.611 C 331.187 390.612 332.085 389.915 332.28 388.951 L 344.254 332.258 C 344.476 331.042 343.657 329.873 342.377 329.584 C 341.222 329.287 340.025 329.915 339.69 330.995 C 339.69 330.995 339.655 331.144 339.655 331.212 Z" style="fill: rgb(67, 89, 203);"/>
  <path d="M 358.72 331.444 L 369.118 388.338 C 369.317 389.659 368.333 390.881 366.924 391.059 L 366.606 391.059 C 365.569 391.071 364.678 390.364 364.519 389.399 L 354.083 332.506 C 353.913 331.281 354.751 330.127 356.03 329.833 C 357.146 329.521 358.316 330.118 358.648 331.161 C 358.684 331.255 358.71 331.348 358.72 331.444 Z" style="fill: rgb(67, 89, 203);"/>
  <path d="M 327.895 331.76 L 306.672 388.403 C 306.25 389.433 306.788 390.586 307.876 390.995 C 308.132 391.08 308.401 391.127 308.672 391.127 C 309.764 391.111 310.726 390.444 311.059 389.466 L 332.28 332.839 C 332.717 331.827 332.193 330.673 331.113 330.266 L 330.847 330.266 C 329.607 329.999 328.343 330.638 327.895 331.76 Z" style="fill: rgb(67, 89, 203);"/>
  <path d="M 336.948 287.915 C 342.256 279.133 349.452 270.451 359.746 267.545 C 366.093 265.736 372.937 266.366 379.481 267.413 C 384.408 267.977 389.169 269.449 393.486 271.745 C 397.854 274.101 400.727 278.308 401.18 283.018 C 401.099 285.704 400.501 288.352 399.41 290.837 L 389.719 317.018 C 388.448 320.453 387.067 324.056 384.15 326.464 C 381.25 328.488 377.882 329.837 374.318 330.399 C 362.77 333.105 351.131 335.81 339.247 336.144 C 327.363 336.476 315.056 334.217 305.348 327.84 C 301.809 325.551 298.556 321.516 300.431 317.882 C 301.899 315.142 305.736 314.411 308.989 314.561 C 317.567 314.893 320.06 313.962 325.117 307.373 C 329.735 301.28 333.04 294.408 336.948 287.915 Z" fill="#505365" style=""/>
  <path d="M 330.264 279 C 329.139 280.842 327.608 282.439 325.773 283.682 L 303.047 301.462 C 300.944 303.122 298.608 305.264 299.034 307.821 C 299.059 308.08 299.169 308.324 299.352 308.518 C 299.689 308.762 300.116 308.871 300.536 308.818 C 302.851 308.769 305.15 308.485 307.4 307.969 C 309.768 307.422 312.421 306.31 312.898 304.001 C 313.022 303.37 312.898 302.723 313.074 302.093 C 313.536 300.566 314.65 299.287 316.151 298.557 C 317.922 297.445 319.493 296.165 321.193 295.037 C 324.535 292.78 328 290.672 331.554 288.712 C 334.05 287.335 337.94 285.724 339.425 283.251 C 340.911 280.775 339.674 277.123 338.769 274.601 C 338.17 272.94 337.409 272.709 335.624 272.475 C 333.838 272.243 331.998 271.73 331.396 273.587 C 330.794 275.448 331.148 277.224 330.264 279 Z" fill="#ec9c7d" style=""/>
  <path d="M 368.357 267.779 C 364.431 269.901 361.124 267.694 360.098 263.893 C 359.674 262.232 359.498 260.44 358.913 258.729 C 358.024 256.603 356.834 254.598 355.376 252.771 C 353.894 250.94 352.831 248.844 352.247 246.612 C 351.698 244.323 352.508 241.936 354.367 240.369 C 354.791 240.005 355.353 239.819 355.923 239.854 C 356.827 239.938 357.304 240.901 357.516 241.764 C 357.552 242.633 357.695 243.496 357.941 244.336 C 358.651 245.478 359.815 246.308 361.177 246.644 C 364.236 247.822 367.525 248.869 369.666 251.209 C 371.487 253.377 372.359 256.113 372.108 258.863 C 371.93 261.569 371.079 266.332 368.357 267.779 Z" fill="#2f3554" style=""/>
  <path d="M 327.806 285.542 L 326.552 290.971 C 326.297 291.765 326.219 292.602 326.321 293.428 C 326.601 294.441 327.171 295.364 327.964 296.1 C 333.838 302.41 339 302.941 347.684 302.258 C 352.759 301.896 357.768 300.944 362.593 299.42 C 361.884 292.464 362.593 282.951 363.971 280.014 C 367.614 272.127 372.108 261.668 366.889 255.707 C 362.662 250.894 354.951 251.358 350.246 251.492 C 346.71 251.492 342.626 250.297 339.371 251.873 C 336.118 253.45 333.767 257.169 332.297 259.892 C 331.398 261.569 330.601 263.291 329.91 265.055 C 329.81 265.263 329.75 265.491 329.735 265.718 C 329.772 266.039 329.914 266.343 330.141 266.581 L 332.245 269.471 C 329.258 273.554 328.921 280.775 327.806 285.542 Z" fill="#fff" style=""/>
  <path d="M 347.365 223.518 C 346.826 223.745 346.343 224.081 345.95 224.497 C 344.962 226.036 344.256 227.719 343.865 229.477 L 341.123 236.782 C 341.123 236.782 332.139 236.931 334.05 228.482 C 335.022 224.032 338.009 219.883 343.209 219.451 C 344.405 219.464 345.592 219.62 346.746 219.915 C 348.115 220.148 349.517 220.148 350.884 219.915 C 351.415 219.817 352.052 219.7 352.441 220.049 C 352.758 220.38 352.799 220.869 352.547 221.245 C 352.284 221.592 351.931 221.872 351.521 222.057 C 350.265 222.64 348.674 222.905 347.365 223.518 Z" fill="#2f3554" style=""/>
  <path d="M 354.704 222.305 C 354.704 222.305 339.674 218.339 337.214 228.233 C 336.696 230.28 336.442 232.374 336.453 234.474 L 336.453 236.616 C 337.144 243.091 340.592 248.006 346.18 247.556 C 356.03 246.811 366.464 227.254 354.704 222.305 Z" fill="#ec9c7d" style=""/>
  <path d="M 352.936 240.8 C 353.316 241.149 353.922 241.149 354.297 240.8 C 353.201 242.351 352.515 244.127 352.298 245.979 C 351.54 251.308 354.297 251.541 354.297 251.541 C 344.058 256.92 342.535 253.201 342.535 253.201 C 343.879 251.432 344.024 249.096 342.909 247.192 C 347.559 248.387 351.752 243.242 352.547 240.319 C 352.62 240.514 352.755 240.682 352.936 240.8 Z" fill="#d68369" style=""/>
  <path d="M 343.916 220.846 C 344.713 220.58 345.473 220.713 346.268 220.514 C 347.142 220.198 347.968 219.779 348.728 219.267 C 350.785 218.389 353.075 218.104 355.306 218.456 C 357.059 218.548 358.77 218.99 360.328 219.749 C 362.788 221.219 364.401 223.667 364.696 226.391 C 364.924 229.113 364.308 231.84 362.926 234.242 C 362.678 234.647 362.487 235.083 362.361 235.538 C 362.026 237.381 364.129 238.709 364.943 240.518 C 365.282 241.77 365.493 243.048 365.58 244.336 C 366.198 247.008 368.763 248.835 370.48 250.976 C 372.005 252.809 372.722 255.12 372.478 257.436 C 367.402 255.609 361.636 256.257 356.439 254.729 C 355.286 254.436 354.218 253.911 353.308 253.184 C 351.826 251.676 351.131 249.626 351.415 247.591 C 351.592 246.124 351.875 244.669 352.264 243.242 C 352.441 242.41 352.264 240.918 353.165 240.369 C 353.606 240.088 354.068 239.838 354.545 239.622 C 355.651 239.024 356.326 237.915 356.313 236.718 C 356.367 236.212 356.131 235.721 355.695 235.422 C 355.186 235.209 354.591 235.306 354.19 235.67 C 353.607 236.151 353.678 236.733 352.918 236.865 C 352.101 236.865 351.298 236.635 350.62 236.202 C 345.651 233.613 343.739 226.79 342.237 221.973 C 342.89 221.856 343.191 221.128 343.916 220.846 Z" fill="#2f3554" style=""/>
  <path d="M 355.695 271.114 C 359.832 259.841 362.593 254.296 366.8 255.707 C 366.8 255.707 372.32 258.281 369.189 268.642 C 365.652 280.263 356.419 291.135 356.419 291.135 L 352.122 282.253 C 352.122 282.253 353.52 277.323 355.695 271.114 Z" fill="#ec9c7d" style=""/>
  <path d="M 311.926 312.435 C 312.191 312.138 313.04 311.14 314.313 309.845 C 314.195 309.937 314.087 310.046 313.994 310.162 C 313.263 310.885 312.573 311.645 311.926 312.435 Z" fill="#dc9bd5" style=""/>
  <path d="M 361.972 296.134 C 356.296 296.447 350.317 296.813 344.482 297.61 C 344.482 297.61 321.492 315.722 318.664 320.106 C 311.89 330.283 305.312 327.393 315.125 342.268 L 334.756 372.018 C 338.081 373.065 341.635 370.358 342.607 367.039 C 343.274 363.759 342.917 360.369 341.582 357.276 C 339.566 350.868 337.604 344.443 335.658 338.052 C 335.04 336.642 335.04 335.062 335.658 333.652 C 336.221 332.951 336.946 332.383 337.781 331.993 C 340.114 330.696 341.706 327.626 344.289 326.878 C 348.679 325.783 352.858 324.04 356.668 321.716 C 360.521 319.36 363.229 315.676 364.2 311.455 C 365.155 306.427 362.644 301.329 361.972 296.134 Z" style="fill: rgb(62, 62, 84);"/>
  <path d="M 344.447 297.66 C 339.744 298.208 332.067 296.183 332.067 296.183 C 325.366 298.988 318.115 305.96 314.383 309.879 C 313.092 311.174 312.245 312.17 311.979 312.453 L 311.607 312.901 C 307.469 318.063 304.868 324.156 302.304 330.165 L 289.377 360.396 C 288.9 361.344 288.634 362.373 288.599 363.42 C 288.794 367.156 294.117 368.151 298.097 368.084 L 315.268 342.201 C 315.268 342.201 312.014 332.972 318.805 320.056 C 321.228 315.424 344.659 297.56 344.659 297.56 L 344.447 297.66 Z" fill="#68e1fd" style=""/>
  <path d="M 344.447 297.66 C 339.744 298.208 332.067 296.183 332.067 296.183 C 325.366 298.988 318.115 305.96 314.383 309.879 C 313.092 311.174 312.245 312.17 311.979 312.453 L 311.607 312.901 C 307.469 318.063 304.868 324.156 302.304 330.165 L 289.377 360.396 C 288.9 361.344 288.634 362.373 288.599 363.42 C 288.794 367.156 294.117 368.151 298.097 368.084 L 315.268 342.201 C 315.268 342.201 312.014 332.972 318.805 320.056 C 321.228 315.424 344.659 297.56 344.659 297.56 L 344.447 297.66 Z" fill="url(#linear-gradient-2)" style=""/>
  <path d="M 335.11 374.558 C 335.499 373.645 335.922 372.749 336.402 371.868 C 337.249 371.107 338.174 370.423 339.159 369.828 C 339.566 369.496 341.918 367.62 341.777 367.088 C 342.311 368.865 343.016 370.594 343.88 372.251 C 344.583 373.228 344.932 374.392 344.871 375.572 C 344.501 376.632 343.759 377.543 342.767 378.162 C 339.088 381 334.72 383.69 330 383.14 C 329.704 383.159 329.419 383.047 329.222 382.842 C 329.094 382.692 329.03 382.503 329.044 382.311 C 329.044 380.336 331.008 378.99 332.58 377.695 C 333.601 376.785 334.455 375.727 335.11 374.558 Z" fill="#ec9c7d" style=""/>
  <path d="M 344.077 373.744 C 343.191 374.01 342.43 375.221 341.777 375.837 C 340.913 376.635 339.992 377.379 339.018 378.061 C 338.234 378.74 337.182 379.076 336.118 378.99 C 335.092 378.791 334.35 377.928 333.358 377.629 C 332.457 377.392 331.489 377.55 330.724 378.061 C 329.958 378.541 329.299 379.157 328.778 379.87 C 327.287 381.69 326.362 383.863 326.109 386.146 C 326.056 386.401 326.113 386.663 326.268 386.876 C 326.389 387.009 326.55 387.108 326.727 387.158 C 328.275 387.478 329.893 387.202 331.219 386.396 C 334.489 385.013 337.639 383.397 340.644 381.565 C 342.056 380.558 343.574 379.689 345.173 378.974 C 345.493 378.902 345.77 378.716 345.95 378.46 C 346.058 378.254 346.095 378.02 346.057 377.796 C 345.95 376.583 346.057 372.998 344.077 373.744 Z" fill="#505365" style=""/>
  <path d="M 370.85 258.996 C 369.824 256.405 364.608 250.48 361.07 252.903 C 358.815 254.484 357.2 256.738 356.49 259.296 C 356.155 260.474 356.03 261.733 355.711 262.946 C 355.287 264.44 354.614 265.868 354.333 267.381 C 354.073 268.979 354.043 270.602 354.244 272.21 C 357.605 271.767 360.955 271.302 364.29 270.817 L 369.311 270.068 C 370.249 269.936 372.158 270.285 372.602 269.37 C 372.814 268.841 372.851 268.262 372.707 267.712 L 372.301 265.038 C 372.055 263.064 371.591 261.115 370.92 259.228 C 370.906 259.148 370.882 259.07 370.85 258.996 Z" fill="#fff" style=""/>
  <path d="M 320.485 279.847 L 322.942 277.19 C 322.942 277.19 349.133 281.059 352.918 282.471 C 356.702 283.88 356.454 291.119 356.454 291.119 C 346.233 293.775 320.485 279.847 320.485 279.847 Z" fill="#ec9c7d" style=""/>
  <path d="M 325.188 280.578 C 325.104 280.875 324.925 281.14 324.675 281.341 C 324.401 281.484 324.104 281.58 323.793 281.624 C 321.935 282.038 320.502 283.416 318.751 284.064 C 317.057 284.977 315.07 285.303 313.145 284.976 C 311.433 284.493 309.817 283.753 308.353 282.785 C 307.437 282.309 306.619 281.685 305.93 280.942 C 305.241 280.18 305.027 279.134 305.363 278.186 C 305.93 276.859 307.681 276.426 309.201 276.228 C 311.251 275.946 313.326 275.864 315.394 275.978 C 317.161 276.094 318.929 276.61 320.697 276.71 C 323.137 276.843 326.128 277.689 325.188 280.578 Z" fill="#ec9c7d" style=""/>
  <path d="M 155.471 305.198 L 139.272 362.306 C 138.934 363.479 139.68 364.687 140.933 364.995 C 141.128 365.011 141.325 365.011 141.518 364.995 C 142.581 364.989 143.507 364.305 143.763 363.337 L 159.98 306.227 C 160.306 305.061 159.561 303.87 158.317 303.571 L 158.211 303.571 C 156.979 303.322 155.76 304.045 155.471 305.198 Z" style="fill: rgb(67, 89, 203);"/>
  <path d="M 185.464 305.198 L 197.418 361.891 C 197.644 363.166 196.724 364.37 195.367 364.581 L 194.979 364.581 C 193.931 364.582 193.034 363.885 192.837 362.919 L 180.863 306.227 C 180.643 305.014 181.465 303.852 182.74 303.571 C 183.882 303.26 185.079 303.875 185.41 304.95 L 185.464 305.198 Z" style="fill: rgb(67, 89, 203);"/>
  <path d="M 166.346 305.429 L 155.948 362.323 C 155.75 363.644 156.732 364.866 158.14 365.045 L 158.46 365.045 C 159.498 365.056 160.389 364.349 160.547 363.385 L 170.962 306.493 C 171.144 305.268 170.3 304.116 169.017 303.836 C 167.876 303.494 166.663 304.114 166.346 305.198 L 166.346 305.429 Z" style="fill: rgb(67, 89, 203);"/>
  <path d="M 197.153 305.695 L 218.373 362.339 C 218.797 363.367 218.262 364.52 217.172 364.928 C 216.916 365.015 216.649 365.063 216.375 365.063 C 215.283 365.047 214.322 364.38 213.99 363.403 L 192.766 306.759 C 192.332 305.745 192.855 304.592 193.934 304.185 L 194.2 304.185 C 195.45 303.918 196.714 304.566 197.153 305.695 Z" fill="#68e1fd" style=""/>
  <path d="M 188.097 261.9 C 182.794 253.118 175.595 244.436 165.304 241.515 C 158.936 239.721 152.11 240.336 145.566 241.398 C 140.641 241.958 135.884 243.424 131.561 245.715 C 127.188 248.093 124.327 252.325 123.904 257.053 C 123.974 259.739 124.573 262.39 125.672 264.873 L 135.364 291.053 C 136.637 294.489 138.016 298.092 140.933 300.499 C 143.825 302.538 147.199 303.888 150.766 304.434 C 162.296 307.141 173.952 309.862 185.834 310.194 C 197.719 310.526 210.027 308.253 219.735 301.794 C 223.184 299.504 226.527 295.468 224.634 291.932 C 223.184 289.176 219.33 288.447 216.093 288.611 C 207.517 288.944 205.022 288.015 199.964 281.442 C 195.314 275.314 192.006 268.375 188.097 261.9 Z" fill="#505365" style=""/>
  <path d="M 148.857 250.944 C 138.616 259.892 136.477 275.498 142.756 287.218 C 147.388 295.802 156.902 302.557 167.196 302.009 C 168.67 301.996 170.117 301.636 171.405 300.963 C 174.233 299.305 174.816 295.733 175.118 292.663 C 175.878 287.559 175.878 282.378 175.118 277.273 C 174.18 272.626 171.969 268.227 171.405 263.512 C 171.05 260.524 171.405 257.501 171.209 254.497 C 170.962 249.849 169.865 245.018 164.278 244.935 C 158.512 245.028 152.999 247.178 148.857 250.944 Z" fill="url(#linear-gradient-3)" style=""/>
  <path d="M 167.443 261.586 C 167.636 263.185 167.674 264.797 167.55 266.4 C 167.249 268.31 167.196 270.268 166.93 272.194 C 166.343 276.076 165.38 279.899 164.047 283.615 C 163.303 285.014 163.183 286.632 163.711 288.115 C 164.333 288.975 165.198 289.661 166.205 290.088 C 168.096 291.103 169.741 292.414 171.51 293.411 C 173.618 294.379 175.807 295.184 178.052 295.817 C 184.633 297.843 197.117 300.913 199.717 292.132 C 202.689 282.171 205.182 272.442 207.109 262.249 C 208.049 258.744 208.681 255.175 209.001 251.575 C 209.001 248.653 205.765 247.622 202.954 247.06 L 202.423 246.959 L 200.795 246.661 C 197.05 245.892 193.368 244.871 189.778 243.606 C 185.712 242.228 179.292 239.838 174.002 242.228 C 173.636 242.391 173.28 242.579 172.944 242.793 C 167.354 246.062 166.948 254.181 167.443 261.586 Z" fill="#fff" style=""/>
  <path d="M 223.538 278.138 C 221.926 279.317 220.387 280.582 218.922 281.922 C 216.817 284.363 215.81 284.729 212.574 283.184 C 209.548 281.751 207.072 279.462 205.501 276.644 C 203.735 273.394 202.263 270.013 201.096 266.532 C 200.339 264.839 200.339 262.929 201.096 261.237 C 201.928 258.88 202.866 256.539 203.89 254.248 C 204.652 252.587 209.055 256.837 209.515 257.384 C 212.15 260.457 214.819 263.477 217.1 266.733 C 221.189 264.991 225.433 263.592 229.781 262.548 C 230.222 262.432 230.687 262.432 231.125 262.548 C 231.597 262.785 231.96 263.173 232.151 263.645 L 236.218 270.798 C 235.616 269.471 228.471 274.402 223.538 278.138 Z" fill="#fff" style=""/>
  <path d="M 181.272 264.938 C 181.627 266.713 182.346 268.406 183.396 269.919 C 184.579 271.578 186.648 277.224 189.407 276.559 C 188.125 277.075 186.735 277.32 185.338 277.273 C 188.046 280.595 192.253 282.651 196.198 284.679 C 197.254 285.143 198.197 285.804 198.974 286.621 C 199.754 287.456 199.954 288.637 199.487 289.659 C 198.568 291.318 195.951 291.135 194.004 290.655 C 189.176 289.475 184.385 288.115 179.504 287.218 C 175.348 286.455 170.66 286.106 167.125 288.347 C 166.867 288.562 166.546 288.698 166.205 288.747 C 165.646 288.71 165.192 288.305 165.127 287.783 C 165.084 287.272 165.171 286.761 165.375 286.289 C 166.573 282.576 167.234 278.726 167.336 274.85 C 167.336 273.29 167.832 271.813 167.867 270.318 C 167.867 268.458 167.478 266.566 167.443 264.706 C 167.389 260.952 167.78 257.207 168.612 253.533 C 169.176 250.961 170.378 248.023 173.138 247.424 C 175.21 247.101 177.289 247.952 178.442 249.6 C 179.499 251.221 180.107 253.064 180.21 254.961 C 180.382 258.303 180.734 261.632 181.272 264.938 Z" fill="#d8dae1" style=""/>
  <path d="M 174.057 242.111 C 179.361 239.721 185.765 242.111 189.832 243.491 C 193.414 244.766 197.089 245.789 200.83 246.544 C 201.38 246.627 201.928 246.728 202.457 246.842 C 200.689 245.333 197.329 244.967 194.979 244.319 C 191.44 243.355 187.904 242.493 184.278 241.713 C 180.653 240.933 176.957 240.452 174.057 242.111 Z" fill="#fff" style=""/>
  <path d="M 189.212 232.998 C 190.59 236.572 194.669 238.545 198.568 237.529 C 198.568 237.529 196.674 242.627 198.868 245.747 C 199.275 246.346 196.446 246.876 196.287 246.893 C 194.684 246.86 193.106 246.513 191.653 245.881 C 189.4 244.852 187.026 244.072 184.579 243.556 C 185.748 243.074 186.681 242.197 187.197 241.099 C 188.26 238.711 188.435 236.057 187.692 233.562 C 188.07 233.766 188.542 233.725 188.876 233.462 C 189.039 233.344 189.158 233.181 189.212 232.998 Z" fill="#d68369" style=""/>
  <path d="M 194.004 239.654 C 199.312 241.214 203.661 237.181 205.748 231.17 C 205.96 230.506 206.154 229.827 206.315 229.13 C 206.805 227.122 207.042 225.064 207.022 223.003 C 206.915 213.043 191.708 213.823 191.708 213.823 C 179.346 216.213 184.844 236.966 194.004 239.654 Z" fill="#ec9c7d" style=""/>
  <path d="M 202.317 212.395 C 204.243 212.868 205.921 213.993 207.022 215.549 C 207.479 216.429 208.01 217.274 208.611 218.072 C 209.55 219.169 210.946 219.964 211.406 221.294 C 209.005 221.619 206.562 221.161 204.475 219.999 C 204.11 220.539 203.474 220.862 202.794 220.861 C 202.122 220.844 201.457 220.715 200.83 220.48 C 200.487 220.338 200.102 220.305 199.736 220.38 C 199.46 220.48 199.21 220.64 199.009 220.846 C 197.721 221.841 195.984 222.156 194.394 221.676 C 193.457 221.392 192.518 220.829 191.636 221.096 C 190.647 221.579 190.042 222.554 190.08 223.601 C 190.08 224.216 190.38 224.797 190.399 225.428 C 190.401 226.077 190.288 226.722 190.061 227.337 C 189.715 226.887 189.282 226.5 188.787 226.19 C 188.265 225.925 187.633 225.925 187.108 226.19 C 186.896 226.31 186.713 226.476 186.576 226.673 C 185.686 227.925 185.88 229.597 187.038 230.641 C 186.859 231.254 186.684 231.868 186.541 232.501 C 185.713 231.621 185.057 230.61 184.615 229.512 C 184.231 228.279 183.709 227.089 183.058 225.958 C 182.618 225.443 182.233 224.886 181.909 224.298 C 181.784 223.861 181.626 223.436 181.43 223.02 C 180.83 221.973 179.998 220.944 180.372 219.7 C 180.742 218.456 182.314 217.441 181.996 216.147 C 181.95 215.897 181.878 215.654 181.784 215.417 C 181.766 215.052 181.857 214.689 182.05 214.371 C 183.555 211.764 186.234 209.933 189.336 209.391 C 192.423 208.877 195.588 208.957 198.638 209.622 C 201.697 210.171 204.74 210.952 207.851 211.283 C 208.111 211.251 208.364 211.36 208.506 211.567 C 208.541 211.668 208.541 211.778 208.506 211.879 C 208.364 212.512 207.727 212.908 207.215 213.341 C 206.704 213.773 206.243 214.47 206.613 215.001" fill="#2f3554" style=""/>
  <path d="M 174.73 290.256 C 174.73 290.256 181.166 305.364 186.329 306.941 C 191.493 308.518 210.557 314.079 210.557 314.079 L 219.982 332.024 C 225.29 342.284 231.318 352.311 235.192 363.153 C 235.377 363.836 235.721 364.471 236.201 365.011 C 237.48 365.891 239.12 366.16 240.64 365.743 C 243.876 365.327 247.113 364.913 250.294 364.215 C 251.833 363.867 253.709 363.087 253.691 361.592 C 253.673 360.1 251.922 359.384 250.577 358.919 L 246.14 357.475 C 244.03 357.176 242.41 355.568 242.214 353.575 C 241.421 351.062 240.865 348.491 240.55 345.886 C 240.357 343.464 238.445 341.058 238.445 338.766 L 232.804 323.491 L 224.21 300.249 L 224.21 300.1 L 203.378 290.14 L 174.73 290.256 Z" fill="#2f3554" style=""/>
  <path d="M 165.798 293.228 C 165.798 293.228 164.577 306.989 169.759 308.584 C 174.941 310.178 194.058 315.655 194.058 315.655 L 201.431 334.5 C 204.456 342.268 208.506 350.203 210.717 358.223 C 211.162 360.503 211.422 362.812 211.496 365.128 C 211.499 365.756 211.667 366.372 211.99 366.921 C 212.766 367.719 213.863 368.179 215.016 368.183 C 219.8 368.747 224.612 369.141 229.445 369.361 C 230.047 369.461 230.666 369.381 231.212 369.129 C 231.707 368.801 232.049 368.308 232.169 367.752 C 232.678 365.943 232.062 364.018 230.577 362.772 C 229.021 361.476 226.828 361.11 225.076 360.115 C 221.292 357.841 220.973 351.483 219.93 347.597 L 216.057 332.955 L 208.611 305.198 C 208.506 304.766 208.152 301.877 207.693 301.712 L 186.859 291.751 C 186.859 291.751 174.763 287.467 165.798 293.228 Z" fill="#4c506d" style=""/>
  <path d="M 165.798 293.228 C 165.798 293.228 164.577 306.989 169.759 308.584 C 174.941 310.178 194.058 315.655 194.058 315.655 L 201.431 334.5 C 204.456 342.268 208.506 350.203 210.717 358.223 C 211.162 360.503 211.422 362.812 211.496 365.128 C 211.499 365.756 211.667 366.372 211.99 366.921 C 212.766 367.719 213.863 368.179 215.016 368.183 C 219.8 368.747 224.612 369.141 229.445 369.361 C 230.047 369.461 230.666 369.381 231.212 369.129 C 231.707 368.801 232.049 368.308 232.169 367.752 C 232.678 365.943 232.062 364.018 230.577 362.772 C 229.021 361.476 226.828 361.11 225.076 360.115 C 221.292 357.841 220.973 351.483 219.93 347.597 L 216.057 332.955 L 208.611 305.198 C 208.506 304.766 208.152 301.877 207.693 301.712 L 186.859 291.751 C 186.859 291.751 174.763 287.467 165.798 293.228 Z" fill="#2f3554" style=""/>
  <path d="M 169.3 248.238 C 169.3 248.238 171.617 269.038 179.91 274.285 C 188.204 279.531 208.064 257.467 208.064 257.467 L 201.715 252.637 L 185.338 260.474 C 185.338 260.474 183.006 242.911 179.663 242.659 C 176.321 242.41 169.229 244.751 169.3 248.238 Z" fill="#fff" style=""/>
  <path d="M 210.31 245.3 C 211.031 244.666 211.928 244.235 212.893 244.054 C 213.773 244.004 214.651 244.155 215.456 244.486 C 217.083 244.984 218.889 245.847 219.206 247.407 C 219.311 248.645 218.748 249.85 217.702 250.612 C 216.73 251.409 215.561 251.973 214.572 252.771 C 213.176 253.898 212.131 255.525 210.399 256.091 C 209.667 256.323 208.886 256.402 208.116 256.323 C 205.552 256.107 202.812 254.081 204.297 251.592 C 205.905 249.188 207.938 247.06 210.31 245.3 Z" fill="#ec9c7d" style=""/>
  <path d="M 224.564 295.136 C 223.926 293.522 222.868 292.085 221.487 290.953 C 220.764 290.521 220.009 290.144 219.223 289.824 C 218.327 289.328 217.386 288.897 216.412 288.546 C 216.262 288.513 216.104 288.513 215.951 288.546 C 215.707 288.624 215.559 288.855 215.598 289.094 C 215.653 289.317 215.755 289.527 215.898 289.707 C 216.38 290.327 216.943 290.888 217.579 291.369 C 216.118 292.015 214.425 292.015 212.964 291.369 C 211.052 290.59 208.916 290.438 206.897 290.936 C 206.513 291.05 206.174 291.268 205.925 291.567 C 205.5 292.447 205.704 293.481 206.436 294.157 C 207.102 294.914 207.842 295.609 208.646 296.232 C 209.394 296.929 210.269 297.493 211.23 297.893 C 211.766 298.043 212.318 298.144 212.874 298.192 L 216.093 298.573 C 217.014 298.645 217.914 298.85 218.763 299.188 C 220.372 299.933 222.301 303.388 224.229 302.723 C 225.376 302.358 227.004 301.246 226.792 299.968 C 226.512 299.193 226.137 298.453 225.678 297.76 C 225.29 296.896 224.952 295.983 224.564 295.136 Z" style="fill: rgb(236, 156, 125);"/>
  <path d="M 238.324 345.438 C 238.271 347.778 238.746 350.106 239.72 352.263 L 239.861 352.263 C 242.495 352.263 245.166 352.263 247.784 352.411 C 252.171 352.723 256.536 353.277 260.853 354.072 C 262.851 354.421 264.849 354.803 266.83 355.184 L 272.524 356.263 C 276.15 356.927 279.598 357.491 282.995 357.924 C 287.346 356.18 291.237 353.555 294.382 350.237 L 295.372 349.142 C 295.78 348.661 296.169 348.145 296.54 347.614 C 297.633 346.126 298.348 344.422 298.627 342.634 C 298.713 341.908 298.682 341.175 298.538 340.458 C 297.85 337.993 296.203 335.855 293.922 334.466 L 293.214 333.984 C 288.407 330.863 282.647 329.29 276.805 329.501 L 275.337 329.501 C 272.217 329.722 269.124 330.215 266.104 330.98 C 261.313 332.125 256.52 333.735 251.779 335.163 C 248.279 336.043 244.926 337.385 241.824 339.148 C 240.941 339.688 240.167 340.376 239.543 341.172 C 238.694 342.448 238.27 343.935 238.324 345.438 Z" fill="#3e3e54" style=""/>
  <path d="M 238.746 352.595 C 239.361 355.583 239.909 358.583 240.392 361.592 C 241.522 368.585 242.272 375.629 242.638 382.692 C 242.723 383.35 242.659 384.02 242.442 384.653 C 241.63 386.51 238.906 386.611 236.818 386.594 C 234.732 386.578 231.904 387.391 231.939 389.383 C 231.939 390.943 233.707 391.858 235.352 392.355 C 240.037 393.848 244.962 394.549 249.907 394.43 C 250.508 394.45 251.11 394.361 251.674 394.164 C 255.035 392.786 252.381 389.183 252.028 386.993 C 251.515 383.888 252.789 380.468 253.584 377.514 C 255.459 370.623 260.41 364.382 260.216 357.061 C 260.038 356.129 260.22 355.167 260.728 354.355 C 261.666 353.274 265.575 355.018 266.813 355.25 L 272.508 356.33 C 282.711 358.189 292.136 360.33 302.57 358.504 C 303.199 358.44 303.804 358.24 304.337 357.924 C 304.982 357.412 305.426 356.719 305.613 355.946 C 307.093 351.622 306.698 346.921 304.515 342.866 C 301.969 338.133 297.9 336.226 293.162 334.002 C 287.68 331.395 283.066 329.435 276.75 329.6 L 275.284 329.6 C 272.153 329.836 269.047 330.348 266.016 331.129 C 258.323 332.989 240.586 335.628 237.722 344.013 C 236.784 346.651 237.95 348.778 238.517 351.349 L 238.746 352.595 Z" fill="#3e3e54" style=""/>
  <path d="M 238.746 352.595 C 239.361 355.583 239.909 358.583 240.392 361.592 C 241.522 368.585 242.272 375.629 242.638 382.692 C 242.723 383.35 242.659 384.02 242.442 384.653 C 241.63 386.51 238.906 386.611 236.818 386.594 C 234.732 386.578 231.904 387.391 231.939 389.383 C 231.939 390.943 233.707 391.858 235.352 392.355 C 240.037 393.848 244.962 394.549 249.907 394.43 C 250.508 394.45 251.11 394.361 251.674 394.164 C 255.035 392.786 252.381 389.183 252.028 386.993 C 251.515 383.888 252.789 380.468 253.584 377.514 C 255.459 370.623 260.41 364.382 260.216 357.061 C 260.038 356.129 260.22 355.167 260.728 354.355 C 261.666 353.274 265.575 355.018 266.813 355.25 L 272.508 356.33 C 282.711 358.189 292.136 360.33 302.57 358.504 C 303.199 358.44 303.804 358.24 304.337 357.924 C 304.982 357.412 305.426 356.719 305.613 355.946 C 307.093 351.622 306.698 346.921 304.515 342.866 C 301.969 338.133 297.9 336.226 293.162 334.002 C 287.68 331.395 283.066 329.435 276.75 329.6 L 275.284 329.6 C 272.153 329.836 269.047 330.348 266.016 331.129 C 258.323 332.989 240.586 335.628 237.722 344.013 C 236.784 346.651 237.95 348.778 238.517 351.349 L 238.746 352.595 Z" style="fill: rgb(62, 62, 84);"/>
  <path d="M 224.229 353.342 C 221.718 356.193 219.724 359.413 218.322 362.87 C 216.553 366.738 205.942 408.209 205.482 408.125 L 213.51 410.119 C 222.763 397.698 230.475 384.33 236.5 370.276 C 238.27 366.239 238.27 365.86 243.026 365.011 C 247.128 364.249 251.231 363.435 255.3 362.523 C 263.253 360.781 271.057 358.486 278.641 355.65 C 283.237 353.986 287.634 351.884 291.766 349.374 C 292.364 348.939 292.902 348.432 293.356 347.863 C 293.552 347.614 293.746 347.349 293.922 347.081 C 294.643 345.977 294.988 344.693 294.912 343.398 C 294.894 343.054 294.828 342.714 294.719 342.385 C 293.942 340.493 292.492 338.908 290.616 337.902 C 287.764 335.986 284.405 334.836 280.906 334.581 C 278.572 334.448 276.22 334.896 273.833 334.782 C 271.447 334.665 270.295 333.585 268.528 333.32 C 267.115 333.171 265.685 333.289 264.318 333.668 C 261.21 334.667 258.207 335.938 255.352 337.47 L 238.534 345.356 L 238.393 345.356 L 235.034 346.933 C 231.495 348.593 227.464 350.255 224.67 352.942 L 224.229 353.342 Z" fill="#3e3e54" style=""/>
  <path d="M 193.651 406.201 C 192.179 406.277 190.751 406.699 189.494 407.429 C 188.233 408.207 187.663 409.674 188.097 411.032 C 188.604 411.924 189.423 412.62 190.414 413.008 C 196.29 415.68 202.808 416.858 209.32 416.425 C 210.24 416.478 211.154 416.245 211.919 415.762 C 212.573 415.133 212.998 414.324 213.14 413.456 C 213.743 411.857 213.865 410.134 213.495 408.476 C 212.432 405.155 208.488 405.886 205.694 405.735 C 201.674 405.542 197.644 405.698 193.651 406.201 Z" fill="#3e3e54" style=""/>
  <path d="M 252.684 259.577 C 252.01 260.373 250.914 261.237 251.374 262.134 C 251.586 262.631 252.188 262.88 252.647 263.196 C 253.816 264.162 254.527 265.524 254.626 266.98 C 254.737 268.426 255.102 269.845 255.707 271.181 C 256.384 272.512 257.968 273.208 259.49 272.842 C 260.34 272.525 261.136 271.73 262.002 271.994 C 262.868 272.261 262.957 272.924 263.346 273.471 C 264.445 274.75 266.222 275.33 267.926 274.967 C 269.597 274.577 271.171 273.889 272.559 272.94 C 273.17 272.645 273.671 272.19 274.01 271.629 C 274.204 271.091 274.204 270.506 274.01 269.97 C 273.326 268.373 272.316 266.921 271.038 265.686 C 268.936 263.16 267.521 260.194 266.918 257.037 C 266.512 254.844 266.405 252.389 264.762 250.812 C 262.513 248.653 257.688 249.152 255.3 251.077 C 252.912 253.004 254.769 257.053 252.684 259.577 Z" style="fill: rgb(236, 156, 125);"/>
  <path d="M 255.707 249.119 C 255.746 249.491 255.868 249.854 256.061 250.18 C 256.662 251.108 258.358 251.708 259.384 252.24 C 260.47 252.797 261.287 253.723 261.666 254.829 C 262.32 256.853 261.383 259.228 262.266 261.203 C 262.567 261.586 263.256 261.203 263.488 260.856 C 263.717 260.505 263.823 259.892 264.232 259.611 C 264.92 259.144 265.892 259.744 266.281 260.457 C 267.147 262.198 266.42 264.271 264.619 265.188 C 264.778 265.818 265.698 266.001 266.386 265.853 C 267.045 265.603 267.734 265.452 268.439 265.404 C 270.048 265.537 270.862 267.645 272.472 267.712 C 274.08 267.779 275.265 265.371 276.468 264.39 C 277.67 263.411 279.845 263.212 280.447 261.834 C 280.731 261.171 280.572 260.325 281.155 259.859 C 281.597 259.611 282.107 259.476 282.622 259.476 C 283.795 259.201 284.737 258.381 285.114 257.301 C 285.466 256.214 285.421 255.045 284.992 253.981 C 284.866 253.567 284.627 253.191 284.304 252.888 C 283.77 252.557 283.168 252.334 282.533 252.24 C 279.721 251.492 277.722 249.234 275.618 247.26 C 273.515 245.282 270.738 243.574 267.874 244.17 C 266.658 242.728 264.812 241.878 262.851 241.862 C 261.866 242.04 260.932 242.413 260.11 242.959 C 258.705 243.711 257.498 244.749 256.573 245.996 C 255.956 246.932 255.652 248.018 255.707 249.119 Z" fill="#dd8049" style=""/>
  <path d="M 269.784 270.417 C 268.103 271.288 266.484 272.265 264.938 273.339 C 264.457 273.653 264.052 274.061 263.752 274.534 C 263.47 275.056 263.47 275.673 263.752 276.195 C 264.302 276.909 265.31 276.543 266.088 276.195 C 269.664 274.651 273.527 273.771 277.458 273.606 C 278.014 273.642 278.54 273.368 278.803 272.908 C 278.931 272.394 278.815 271.854 278.483 271.43 C 276.098 267.779 272.896 268.673 269.784 270.417 Z" fill="#fff" style=""/>
  <path d="M 262.939 317.781 C 261.302 314.479 259.946 311.058 258.888 307.554 C 258.641 306.79 258.252 303.786 256.945 303.952 C 256.254 304.053 255.016 307.09 254.626 307.705 C 251.259 313.028 246.748 317.644 241.383 321.252 C 240.477 321.984 239.353 322.431 238.163 322.528 C 236.529 322.323 235.056 321.503 234.077 320.255 C 228.647 314.875 223.807 308.997 219.629 302.708 C 222.415 300.509 225.32 298.447 228.331 296.532 C 230.702 300.084 234.232 302.82 238.393 304.334 C 240.16 299.753 241.117 293.743 244.069 289.808 C 246.069 287.135 248.208 284.446 249.977 281.59 C 250.456 280.811 251.052 280.101 251.744 279.482 C 252.761 278.79 253.915 278.298 255.14 278.038 C 264.343 275.51 273.699 273.492 283.153 271.994 C 284.568 271.691 286.025 271.601 287.468 271.73 C 291.499 272.293 294.152 275.864 296.185 279.184 C 306.798 296.498 314.365 316.155 313.18 336.109 C 313.169 337.191 312.983 338.267 312.633 339.297 C 311.936 340.844 310.799 342.184 309.342 343.165 C 304.396 346.506 298.41 348.223 292.313 348.045 C 283.293 348.045 271.393 345.573 264.672 339.48 C 260.853 336.043 264.672 333.968 266.441 330.564 C 268.793 326.198 264.974 321.682 262.939 317.781 Z" style="fill: rgb(89, 70, 140);"/>
  <path d="M 307.822 303.77 C 307.174 301.115 306.246 298.528 305.046 296.049 C 299.74 299.569 295.938 306.442 293.993 312.219 C 292.048 317.998 290.458 324.09 286.514 328.82 L 282.233 327.427 L 281.438 329.967 C 280.8 331.975 282.605 334.017 282.428 336.043 C 281.995 338.171 280.269 339.861 278.024 340.361 C 275.506 340.827 272.899 340.655 270.472 339.861 C 268.878 339.568 267.373 338.955 266.053 338.068 C 264.728 337.138 264.105 335.567 264.46 334.051 C 263.403 334.659 262.916 335.859 263.275 336.972 C 263.662 338.05 264.373 338.996 265.328 339.693 C 268.508 341.997 272.101 343.746 275.938 344.857 C 277.702 345.534 279.517 346.087 281.367 346.519 C 285.614 347.412 289.96 347.832 294.312 347.763 C 296.945 347.763 298.538 347.431 299.618 344.974 C 301.278 341.488 301.385 337.537 301.809 333.719 C 302.989 323.605 305.001 313.593 307.822 303.77 Z" fill="url(#linear-gradient-7)" style=""/>
  <path d="M 345.315 313.997 C 345.243 316.681 344.645 319.333 343.546 321.815 C 343.349 322.364 343.137 322.91 342.925 323.475 C 339.921 331.665 336.897 339.845 333.853 348.013 C 332.58 351.45 331.201 355.052 328.282 357.459 C 325.385 359.484 322.017 360.832 318.452 361.394 C 306.92 364.099 295.266 366.82 283.383 367.136 C 275.644 367.439 267.91 366.404 260.569 364.083 C 256.64 362.786 252.916 360.994 249.498 358.754 C 245.963 356.462 242.708 352.429 244.599 348.875 C 246.05 346.137 249.907 345.407 253.143 345.555 C 261.72 345.886 264.213 344.959 269.269 338.368 C 273.921 332.307 277.228 325.435 281.136 318.944 C 286.442 310.162 293.638 301.478 303.932 298.573 C 310.298 296.763 317.124 297.393 323.667 298.44 C 328.595 299.005 333.355 300.477 337.676 302.774 C 342.009 305.131 344.857 309.314 345.315 313.997 Z" fill="#505365" style=""/>
  <path d="M 342.89 323.46 C 339.885 331.647 336.862 339.829 333.819 347.997 C 332.546 351.433 331.166 355.034 328.247 357.443 C 325.35 359.467 321.982 360.815 318.416 361.376 C 306.886 364.083 295.231 366.804 283.347 367.121 C 275.608 367.423 267.875 366.386 260.534 364.066 C 258.909 362.699 257.384 361.23 255.972 359.667 C 255 358.555 254.027 357.01 254.822 355.799 C 255.617 354.586 257.138 354.619 258.5 354.604 C 269.861 354.288 280.292 348.636 286.265 339.561 C 288.602 335.552 290.577 331.363 292.172 327.044 C 295.973 318.179 301.278 309.33 309.981 304.317 C 312.666 302.59 315.873 301.728 319.123 301.86 C 321.117 302.121 323.053 302.68 324.854 303.521 C 332.21 306.608 342.165 312.534 342.925 321.003 C 342.996 321.821 342.983 322.642 342.89 323.46 Z" fill="url(#linear-gradient-8)" style=""/>
  <path d="M 313.729 362.207 L 329.91 419.316 C 330.231 420.516 329.43 421.728 328.142 421.988 C 327.954 422.013 327.767 422.013 327.576 421.988 C 326.514 421.98 325.588 421.298 325.33 420.33 L 309.221 363.303 C 308.894 362.142 309.617 360.952 310.847 360.631 C 312.108 360.315 313.402 361.021 313.729 362.207 Z" style="fill: rgb(67, 89, 203);"/>
  <path d="M 283.737 362.191 L 271.764 418.901 C 271.541 420.175 272.459 421.377 273.814 421.589 L 274.222 421.589 C 275.268 421.603 276.172 420.898 276.345 419.93 L 288.37 363.303 C 288.583 362.091 287.765 360.934 286.495 360.646 C 285.347 360.313 284.131 360.925 283.79 362.007 L 283.737 362.191 Z" style="fill: rgb(67, 89, 203);"/>
  <path d="M 302.87 362.422 L 313.27 419.332 C 313.447 420.663 312.44 421.874 311.023 422.038 L 310.742 422.038 C 309.701 422.049 308.812 421.343 308.654 420.379 L 298.237 363.484 C 298.058 362.261 298.901 361.109 300.182 360.828 C 301.309 360.518 302.485 361.118 302.817 362.174 L 302.87 362.422 Z" style="fill: rgb(67, 89, 203);"/>
  <path d="M 272.028 362.689 L 250.807 419.332 C 250.385 420.359 250.923 421.513 252.01 421.921 C 252.272 422.008 252.548 422.053 252.824 422.054 C 253.915 422.039 254.878 421.373 255.212 420.394 L 276.432 363.767 C 276.854 362.742 276.32 361.586 275.23 361.178 L 275.001 361.178 C 273.744 360.895 272.464 361.546 272.028 362.689 Z" style="fill: rgb(67, 89, 203);"/>
  <path d="M 350.514 184.421 C 345.863 184.421 339 181.433 335.674 186.082 C 335.116 186.964 334.631 187.885 334.226 188.839 C 331.484 194.266 325.383 197.406 319.53 199.811 C 323.068 195.677 326.179 190.697 325.614 185.434 C 325.03 179.872 318.008 179.725 313.482 177.916 C 308.756 176.077 304.307 173.66 300.253 170.726 C 293.905 166.01 288.599 159.321 288.599 151.434 C 288.599 133.173 316.329 118.399 350.495 118.399 C 384.663 118.399 412.39 133.191 412.39 151.434 C 412.39 169.68 384.714 184.421 350.514 184.421 Z" style="fill: rgb(87, 110, 224);"/>
  <path d="M 164.118 184.895 C 160.893 185.094 157.653 185.094 154.426 184.895 C 150.519 184.398 146.75 183.55 147.654 189.31 C 148.715 195.952 155.134 200.765 157.964 206.991 C 144.54 203.854 134.585 196.6 125.353 187.32 C 121.251 183.186 114.213 184.895 108.43 184.895 L 98.491 184.895 C 65.465 184.895 44.823 151.332 61.339 124.481 C 68.999 112.021 83.164 104.346 98.491 104.346 L 164.118 104.346 C 197.146 104.346 217.787 137.907 201.273 164.757 C 193.61 177.219 179.448 184.895 164.118 184.895 Z" style="fill: rgb(87, 110, 224);"/>
  <path d="M 235.034 261.535 C 235.091 260.976 235.331 260.448 235.723 260.025 C 236.253 259.611 237.05 259.744 237.738 259.776 C 240.693 259.892 243.043 257.618 245.467 256.057 C 245.584 255.972 245.727 255.926 245.874 255.925 C 246.034 255.925 246.14 256.107 246.227 256.239 C 247.572 258.564 246.563 261.469 245.13 263.726 C 243.699 265.985 241.842 267.845 239.277 267.944 C 237.692 267.679 236.078 267.579 234.467 267.645 C 233.441 267.861 232.699 268.458 232.222 267.296 C 231.23 265.22 234.539 263.362 235.034 261.535 Z" fill="#ec9c7d" style=""/>
  <path d="M 194.448 297.909 C 194.461 298.902 194.275 299.887 193.899 300.814 C 195.665 299.918 197.599 299.353 199.594 299.153 L 202.388 298.674 C 202.934 298.503 203.532 298.558 204.031 298.821 C 204.457 299.222 204.615 299.809 204.44 300.349 C 204.138 301.296 203.591 302.16 202.847 302.858 C 201.97 303.781 201.026 304.648 200.019 305.447 C 199.347 305.993 198.588 306.441 197.772 306.774 C 195.808 307.438 193.634 306.774 191.546 306.941 C 191.032 306.989 190.509 306.989 189.99 306.941 C 189.111 306.812 188.377 306.236 188.082 305.447 C 187.337 303.405 189.388 302.64 190.539 301.429 C 191.688 300.217 192.643 298.425 194.448 297.909 Z" fill="url(#linear-gradient-9)" style=""/>
  <path d="M 176.692 332.391 C 176.741 334.375 176.337 336.344 175.508 338.168 L 175.383 338.168 C 173.154 338.168 170.908 338.168 168.681 338.3 C 164.959 338.579 161.255 339.067 157.593 339.761 C 155.824 340.045 154.213 340.376 152.534 340.693 L 147.689 341.62 C 144.631 342.185 141.677 342.666 138.846 343.048 C 135.154 341.57 131.856 339.344 129.191 336.524 C 128.891 336.226 128.624 335.909 128.342 335.593 C 128.058 335.28 127.67 334.748 127.351 334.3 C 126.419 333.043 125.815 331.599 125.584 330.083 C 125.48 329.471 125.48 328.851 125.584 328.239 C 126.199 326.185 127.596 324.412 129.509 323.26 L 130.11 322.844 C 134.192 320.201 139.075 318.869 144.029 319.042 L 145.266 319.042 C 147.913 319.239 150.536 319.66 153.101 320.304 C 157.15 321.267 161.219 322.646 165.233 323.841 C 168.198 324.569 171.039 325.685 173.669 327.161 C 175.656 328.221 176.829 330.249 176.692 332.391 Z" fill="#3e3e54" style=""/>
  <path d="M 177.435 350.537 C 176.904 353.059 176.444 355.599 176.039 358.156 C 175.472 361.66 175.225 365.229 174.623 368.716 C 174.021 372.202 174.128 375.654 173.508 379.089 C 173.21 380.372 173.049 381.681 173.031 382.993 C 173.207 384.816 173.704 386.598 174.498 388.271 C 174.392 388.503 174.039 388.486 173.774 388.421 C 172.294 388.105 170.857 387.624 169.494 386.993 C 168.119 386.361 167.03 385.28 166.435 383.954 C 165.267 381.116 166.666 377.945 165.78 374.972 C 164.506 371.334 163.853 367.531 163.835 363.7 C 164.192 360.947 164.383 358.175 164.401 355.399 C 163.994 350.651 160.865 345.871 162.632 341.421 C 164.118 338.39 167.211 336.325 170.75 336.01 C 171.87 335.832 173.021 335.922 174.092 336.276 C 179.397 338.268 178.478 345.673 177.628 349.558 L 177.435 350.537 Z" fill="url(#linear-gradient-10)" style=""/>
  <path d="M 165.179 383.888 C 165.252 383.804 165.344 383.735 165.444 383.69 C 165.852 383.523 166.24 383.97 166.47 384.336 C 167.473 385.897 168.986 387.11 170.785 387.789 C 171.004 387.9 171.256 387.93 171.493 387.874 C 171.757 387.773 171.898 387.507 172.112 387.325 C 172.442 387.079 172.883 387.009 173.279 387.142 C 173.67 387.266 174.035 387.448 174.357 387.69 C 175.385 388.334 176.356 389.056 177.258 389.849 C 177.786 390.244 178.027 390.89 177.876 391.508 C 177.701 391.798 177.417 392.016 177.081 392.122 C 175.826 392.495 174.467 392.449 173.243 391.99 C 170.943 391.275 168.929 389.981 166.682 389.134 C 166.529 389.068 166.359 389.034 166.186 389.034 L 165.815 389.118 C 165.404 389.074 165.04 388.854 164.826 388.518 C 163.584 387.142 163.741 385.087 165.179 383.888 Z" fill="#3e3e54" style=""/>
  <path d="M 188.188 351.815 C 189.182 354.202 189.651 356.754 189.566 359.319 C 189.566 365.958 187.621 372.3 185.728 378.626 C 184.933 381.282 184.26 384.022 183.324 386.646 C 182.386 389.266 184.457 393.85 185.959 396.09 C 186.33 396.555 186.631 397.071 186.843 397.618 C 187.07 398.217 186.864 398.885 186.329 399.278 C 186.004 399.44 185.639 399.515 185.268 399.494 C 182.19 399.314 179.242 398.262 176.815 396.471 C 175.797 396.034 175.237 394.992 175.472 393.966 C 176.356 379.39 180.777 365.361 170.166 352.826 C 167.726 349.939 164.668 347.299 163.623 343.761 C 163.466 343.219 163.466 342.645 163.623 342.102 C 163.839 341.579 164.23 341.134 164.738 340.84 C 167.16 339.182 170.467 339.397 173.385 340.028 C 180.119 341.366 185.682 345.796 188.188 351.815 Z" fill="url(#linear-gradient-11)" style=""/>
  <path d="M 176.675 398.165 C 178.937 398.846 180.724 400.422 182.916 401.253 C 184.89 402.212 187.006 402.883 189.195 403.245 C 189.551 403.328 189.92 403.328 190.273 403.245 C 191.146 402.825 191.486 401.819 191.034 401.004 C 190.573 400.225 189.975 399.523 189.266 398.928 C 188.619 398.256 188.025 397.534 187.497 396.77 C 187.038 396.139 186.561 395.11 185.728 394.862 C 184.898 394.614 183.801 395.195 183.006 395.31 C 181.854 395.424 180.694 395.165 179.716 394.579 C 178.757 393.983 177.894 393.262 177.151 392.438 C 176.762 392.024 176.197 391.542 175.649 391.757 C 175.1 391.973 175.047 392.488 174.993 392.951 C 174.871 394.081 174.781 395.21 174.763 396.272 C 174.708 396.618 174.767 396.97 174.923 397.286 C 175.19 397.816 176.004 397.983 176.675 398.165 Z" fill="#3e3e54" style=""/>
  <path d="M 177.734 325.75 C 185.357 330.163 190.061 337.914 190.221 346.319 C 182.955 351.451 174.574 355.016 165.675 356.761 C 164.659 357.043 163.579 357.043 162.561 356.761 C 161.723 356.362 160.988 355.796 160.405 355.101 C 152.252 347.233 137.892 348.028 129.331 340.558 C 126.096 337.72 124.028 332.839 126.538 329.452 C 127.573 328.248 128.862 327.258 130.323 326.547 C 136.99 322.828 144.842 317.267 152.889 318.561 C 160.935 319.856 170.785 321.799 177.734 325.75 Z" style="fill: rgb(104, 225, 253);"/>
  <path d="M 180.884 352.162 C 176.799 348.062 176.054 342.053 175.577 336.456 C 174.406 337.406 173.088 338.185 171.671 338.766 L 170.98 337.021 C 170.927 336.845 170.807 336.691 170.645 336.592 C 170.459 336.541 170.264 336.541 170.078 336.592 C 164.278 338.435 158.2 339.394 152.075 339.429 C 149.721 339.612 147.363 339.112 145.319 338.001 C 143.265 336.771 142.604 334.242 143.817 332.258 C 138.869 333.522 133.826 334.444 128.731 335.013 C 128.321 335 127.917 335.144 127.617 335.412 C 127.228 335.894 127.617 336.573 127.953 337.072 C 132.038 342.464 138.197 346.155 145.126 347.365 C 147.052 347.681 157.276 351.266 161.872 356.895 C 162.533 357.621 163.578 357.933 164.561 357.691 L 180.884 352.162 Z" fill="url(#linear-gradient-12)" style=""/>
  <path d="M 162.332 252.389 C 161.802 251.991 161.204 251.676 160.564 251.459 C 158.505 250.591 156.101 250.88 154.339 252.205 C 152.943 253.551 152.853 255.641 152.57 257.501 C 152.056 260.179 150.84 262.695 149.034 264.823 C 147.953 265.871 147.094 267.107 146.503 268.458 C 146.345 268.916 146.345 269.41 146.503 269.87 C 146.808 270.335 147.234 270.719 147.742 270.982 C 148.886 271.745 150.17 272.309 151.527 272.642 C 152.394 272.874 153.507 273.754 154.356 273.489 C 155.205 273.223 155.629 272.261 156.408 271.828 C 157.396 271.477 158.496 271.518 159.449 271.945 C 160.42 272.358 161.552 272.258 162.419 271.679 C 162.684 271.38 162.882 271.036 163.003 270.666 C 163.362 269.667 163.603 268.629 163.711 267.579 C 163.646 266.484 163.99 265.404 164.684 264.523 C 164.878 264.381 165.05 264.212 165.198 264.026 C 165.584 263.396 164.932 262.665 164.614 262 C 164.377 261.378 164.283 260.717 164.33 260.056 C 164.259 257.518 164.808 254.181 162.332 252.389 Z" fill="url(#linear-gradient-13)" style=""/>
  <path d="M 142.65 269.671 C 142.362 270.032 142.265 270.495 142.382 270.93 C 142.615 271.31 143.053 271.534 143.514 271.513 C 146.85 271.645 150.124 272.391 153.155 273.705 C 153.808 274.003 154.675 274.319 155.134 273.705 C 155.4 273.254 155.4 272.711 155.134 272.261 C 154.878 271.861 154.533 271.516 154.127 271.246 C 152.812 270.347 151.442 269.523 150.023 268.774 C 147.388 267.312 144.683 266.55 142.65 269.671 Z" fill="#fff" style=""/>
  <path d="M 152.817 319.707 C 154.356 322.596 157.593 324.357 154.356 327.259 C 148.661 332.424 138.563 334.581 130.924 334.515 C 125.756 334.669 120.677 333.217 116.477 330.381 C 115.243 329.538 114.282 328.388 113.699 327.06 C 113.396 326.193 113.241 325.284 113.24 324.372 C 112.231 307.456 118.546 290.787 127.635 276.111 C 129.403 273.29 131.613 270.268 135.026 269.787 C 136.253 269.683 137.487 269.756 138.687 270.002 C 146.444 271.261 154.119 272.924 161.677 274.982 C 167.336 276.527 171.421 282.222 173.225 287.284 C 174.8 291.633 175.402 296.249 176.762 300.566 C 176.941 301.435 177.459 302.211 178.214 302.741 C 179.05 303.095 180.002 303.131 180.863 302.84 C 183.589 302.309 186.265 301.593 188.876 300.698 C 190.256 303.562 191.181 306.599 191.618 309.713 C 189.672 311.161 187.853 312.748 186.171 314.461 C 182.346 317.682 177.288 319.296 172.166 318.927 C 170.38 318.909 168.671 318.249 167.389 317.083 C 166.687 316.203 166.2 315.19 165.958 314.111 C 165.169 311.478 164.471 308.818 163.87 306.126 C 163.552 304.666 163.252 303.205 162.986 301.728 C 162.809 300.798 162.986 298.142 162.261 297.461 C 160.35 295.385 159.556 299.885 159.219 300.88 C 158.298 303.607 157.163 306.265 155.824 308.833 C 154.108 312.236 150.871 316.072 152.817 319.707 Z" fill="#fff" style=""/>
  <path d="M 164.577 252.903 C 164.955 251.83 164.999 250.679 164.703 249.583 C 164.192 247.974 163.303 246.494 162.102 245.251 C 159.937 242.517 156.801 240.603 153.26 239.854 C 143.71 238.393 132.605 247.539 128.979 255.096 C 126.698 259.841 126.008 265.055 124.735 270.185 C 123.461 275.314 121.394 280.443 117.112 283.783 C 115.345 285.143 113.275 286.205 112.231 288.08 C 111.116 290.506 111.568 293.314 113.4 295.32 C 114.977 296.883 116.83 298.175 118.881 299.138 C 120.667 300.34 122.088 301.961 123.002 303.836 C 125.195 307.821 126.061 312.368 128.767 316.121 L 132.674 314.095 C 136.041 312.562 139.131 310.544 141.836 308.119 C 144.553 305.639 145.907 302.127 145.516 298.591 C 144.905 296.546 144.144 294.542 143.232 292.596 C 141.04 286.24 145.833 283.682 150.006 279.913 C 152.87 277.237 154.188 273.432 153.544 269.686 C 153.298 268.874 153.219 268.022 153.313 267.18 C 153.756 266.001 154.495 264.943 155.471 264.093 C 157.239 262.065 155.841 259.445 157.946 257.584 C 159.573 256.14 162.067 255.925 163.605 254.264 C 164.027 253.878 164.357 253.415 164.577 252.903 Z" fill="#2f3554" style=""/>
  <path d="M 117.714 297.063 C 118.255 294.812 119.044 292.621 120.065 290.521 C 124.523 293.493 127.794 299.32 129.438 304.234 C 131.083 309.149 132.427 314.279 135.788 318.346 L 139.413 317.166 L 140.086 319.326 C 140.615 320.983 139.094 322.763 139.253 324.471 C 139.61 326.281 141.076 327.722 142.984 328.141 C 145.125 328.523 147.331 328.373 149.387 327.708 C 150.734 327.462 152.01 326.939 153.12 326.183 C 154.221 325.415 154.751 324.123 154.479 322.86 C 155.366 323.391 155.768 324.407 155.471 325.352 C 155.133 326.265 154.519 327.069 153.703 327.66 C 151.049 329.586 148.056 331.064 144.86 332.024 C 143.35 332.591 141.809 333.084 140.244 333.503 C 136.645 334.248 132.965 334.599 129.28 334.549 C 127.033 334.549 125.742 334.268 124.699 332.19 C 123.567 329.12 122.97 325.896 122.93 322.646 C 121.894 314.004 120.151 305.452 117.714 297.063 Z" fill="url(#linear-gradient-14)" style=""/>
  <path d="M 102.681 343.93 L 80.346 399.194 C 79.905 400.332 80.521 401.591 81.725 402.016 C 81.912 402.073 82.101 402.112 82.292 402.133 C 83.339 402.234 84.326 401.662 84.696 400.738 L 107.049 345.49 C 107.515 344.365 106.91 343.1 105.705 342.684 C 104.511 342.248 103.165 342.814 102.718 343.945 L 102.681 343.93 Z" style="fill: rgb(67, 89, 203);"/>
  <path d="M 132.552 346.801 L 138.282 404.357 C 138.351 405.654 137.293 406.76 135.911 406.832 L 135.539 406.832 C 134.515 406.741 133.7 405.983 133.594 405.02 L 127.865 347.482 C 127.779 346.253 128.723 345.171 130.024 345.009 C 131.208 344.807 132.336 345.553 132.533 346.667 C 132.533 346.667 132.552 346.702 132.552 346.801 Z" style="fill: rgb(67, 89, 203);"/>
  <path d="M 113.506 345.207 L 96.952 400.805 C 96.62 402.098 97.468 403.399 98.844 403.711 L 99.162 403.711 C 100.183 403.836 101.144 403.233 101.408 402.299 L 117.98 346.702 C 118.29 345.5 117.579 344.272 116.334 343.862 C 115.255 343.454 114.027 343.944 113.593 344.959 C 113.556 345.039 113.528 345.122 113.506 345.207 Z" style="fill: rgb(67, 89, 203);"/>
  <path d="M 144.135 348.362 L 159.131 406.749 C 159.464 407.794 158.83 408.893 157.716 409.204 C 157.431 409.263 157.138 409.263 156.849 409.204 C 155.786 409.088 154.909 408.359 154.657 407.38 L 139.625 348.976 C 139.309 347.921 139.969 346.825 141.093 346.534 L 141.395 346.534 C 142.665 346.411 143.838 347.193 144.135 348.362 Z" style="fill: rgb(67, 89, 203);"/>
  <path d="M 139.82 303.985 C 135.504 294.739 129.316 285.425 119.376 281.524 C 113.257 279.133 106.396 279.082 99.764 279.515 C 94.803 279.605 89.907 280.603 85.35 282.453 C 80.765 284.398 77.47 288.308 76.509 292.945 C 76.297 295.627 76.615 298.324 77.447 300.897 L 84.237 327.859 C 85.122 331.41 86.112 335.114 88.747 337.821 C 91.408 340.122 94.613 341.795 98.101 342.701 C 109.279 346.485 120.58 350.318 132.356 351.781 C 144.135 353.243 156.638 352.179 166.984 346.702 C 170.679 344.741 174.446 341.058 172.96 337.337 C 171.792 334.466 168.079 333.369 164.808 333.188 C 156.25 332.689 153.878 331.527 149.564 324.489 C 145.621 317.964 143.09 310.826 139.82 303.985 Z" fill="#505365" style=""/>
</svg>