<svg className="home__blob" id="morphing" width="600" height="600" viewBox="0 0 600 600" xmlns="http://www.w3.org/2000/svg">
  <defs>
    <linearGradient id="grad1" x1="0%" y1="0%" x2="100%" y2="0%" spreadMethod="pad" gradientTransform="matrix(1.364795, 0.140642, -0.117801, 0.993949, 0.052615, -0.024531)">
      <stop offset="0" style="stop-opacity: 1; stop-color: rgb(3, 159, 179);"/>
      <stop offset="1" style="stop-opacity: 1; stop-color: rgb(110, 87, 224);"/>
    </linearGradient>
  </defs>
  <g transform="translate(300,300)">
    <path class="p" d="M95,-109.2C143.2,-72.7,216.4,-61.9,232.3,-32C248.2,-2.2,206.8,46.6,170.7,88.7C134.7,130.7,103.9,165.9,67.2,175C30.6,184.2,-12.1,167.3,-52.4,150C-92.8,132.7,-130.8,115.1,-141.6,86.6C-152.3,58,-135.7,18.5,-134,-29.3C-132.4,-77.1,-145.6,-133.1,-125.7,-174.6C-105.8,-216.1,-52.9,-243.1,-14.8,-225.5C23.4,-207.8,46.7,-145.7,95,-109.2Z" fill="url(#grad1)" style=""/>
    <image
                  className="home__blob-img"
                  x="12"
                  y="18"
                  xlinkHref={homeImg}
                />
  </g>
</svg>